<svg xmlns="http://www.w3.org/2000/svg" viewBox="0 0 1200 630" width="1200" height="630">
  <defs>
    <linearGradient id="bg" x1="0%" y1="0%" x2="100%" y2="100%">
      <stop offset="0%" style="stop-color:#fdf2f8"/>
      <stop offset="100%" style="stop-color:#fce7f3"/>
    </linearGradient>
    <linearGradient id="bunny" x1="0%" y1="0%" x2="100%" y2="100%">
      <stop offset="0%" style="stop-color:#f9a8d4"/>
      <stop offset="100%" style="stop-color:#ec4899"/>
    </linearGradient>
    <linearGradient id="inner" x1="0%" y1="0%" x2="100%" y2="100%">
      <stop offset="0%" style="stop-color:#fce7f3"/>
      <stop offset="100%" style="stop-color:#fbcfe8"/>
    </linearGradient>
  </defs>

  <!-- Background -->
  <rect width="1200" height="630" fill="url(#bg)"/>

  <!-- Decorative circles -->
  <circle cx="100" cy="100" r="200" fill="#fbcfe8" opacity="0.3"/>
  <circle cx="1100" cy="530" r="250" fill="#f9a8d4" opacity="0.2"/>

  <!-- Logo bunny - scaled up -->
  <g transform="translate(150, 180) scale(3)">
    <!-- Left ear -->
    <ellipse cx="12" cy="8" rx="4" ry="10" fill="url(#bunny)"/>
    <ellipse cx="12" cy="8" rx="2" ry="7" fill="url(#inner)"/>
    <!-- Right ear -->
    <ellipse cx="28" cy="8" rx="4" ry="10" fill="url(#bunny)"/>
    <ellipse cx="28" cy="8" rx="2" ry="7" fill="url(#inner)"/>
    <!-- Head -->
    <circle cx="20" cy="24" r="14" fill="url(#bunny)"/>
    <!-- Eyes -->
    <ellipse cx="15" cy="22" rx="2.5" ry="3" fill="#18181b"/>
    <ellipse cx="25" cy="22" rx="2.5" ry="3" fill="#18181b"/>
    <circle cx="16" cy="21" r="1" fill="white"/>
    <circle cx="26" cy="21" r="1" fill="white"/>
    <!-- Nose -->
    <ellipse cx="20" cy="28" rx="2" ry="1.5" fill="#be185d"/>
    <!-- Mouth -->
    <path d="M 17 30 Q 20 33 23 30" stroke="#be185d" stroke-width="1.2" fill="none" stroke-linecap="round"/>
  </g>

  <!-- Title -->
  <text x="320" y="300" font-family="system-ui, -apple-system, BlinkMacSystemFont, sans-serif" font-size="90" font-weight="800" fill="#18181b">bunqueue</text>

  <!-- Tagline -->
  <text x="320" y="380" font-family="system-ui, -apple-system, BlinkMacSystemFont, sans-serif" font-size="32" font-weight="500" fill="#52525b">High-performance job queue for Bun</text>

  <!-- Features -->
  <g font-family="system-ui, -apple-system, BlinkMacSystemFont, sans-serif" font-size="24" fill="#71717a">
    <text x="320" y="460">SQLite Persistence</text>
    <text x="320" y="500">Zero Dependencies</text>
    <text x="600" y="460">Cron Jobs</text>
    <text x="600" y="500">DLQ &amp; Retries</text>
    <text x="850" y="460">S3 Backups</text>
    <text x="850" y="500">BullMQ Compatible</text>
  </g>

  <!-- Dots/bullets -->
  <g fill="#ec4899">
    <circle cx="305" cy="454" r="4"/>
    <circle cx="305" cy="494" r="4"/>
    <circle cx="585" cy="454" r="4"/>
    <circle cx="585" cy="494" r="4"/>
    <circle cx="835" cy="454" r="4"/>
    <circle cx="835" cy="494" r="4"/>
  </g>

  <!-- URL -->
  <text x="600" y="590" text-anchor="middle" font-family="system-ui, -apple-system, BlinkMacSystemFont, sans-serif" font-size="20" fill="#a1a1aa">github.com/egeominotti/bunqueue</text>
</svg>
